<svg id="Layer_1" data-name="Layer 1" xmlns="http://www.w3.org/2000/svg" viewBox="0 0 128 128"><defs><style>.cls-1{fill:#fff;}</style></defs><title>Artboard 1</title><path class="cls-1" d="M55.35,18.24l-45.8,79a10,10,0,0,0,8.65,15h91.6a10,10,0,0,0,8.65-15l-45.8-79A10,10,0,0,0,55.35,18.24Z"/><path d="M105.45,122.26H22.55A22.51,22.51,0,0,1,3.07,88.46L44.52,17a22.52,22.52,0,0,1,39,0l41.45,71.5a22.51,22.51,0,0,1-19.48,33.8ZM64,25.75A2.38,2.38,0,0,0,61.84,27L20.38,98.49a2.42,2.42,0,0,0,0,2.51,2.39,2.39,0,0,0,2.17,1.25h82.9a2.5,2.5,0,0,0,2.16-3.76L66.16,27A2.38,2.38,0,0,0,64,25.75Z"/></svg>